<mxfile host="app.diagrams.net" modified="2020-07-09T05:26:09.633Z" agent="5.0 (Macintosh; Intel Mac OS X 10_15_2) AppleWebKit/537.36 (KHTML, like Gecko) Chrome/83.0.4103.116 Safari/537.36" etag="7nnab6EF_p7b4wSZBabj" version="13.3.9" type="github">
  <diagram id="FqEYY0vfk-cv3AvD__Yn" name="Page-1">
    <mxGraphModel dx="946" dy="511" grid="1" gridSize="10" guides="1" tooltips="1" connect="1" arrows="1" fold="1" page="1" pageScale="1" pageWidth="827" pageHeight="1169" math="0" shadow="0">
      <root>
        <mxCell id="0" />
        <mxCell id="1" parent="0" />
        <mxCell id="Z9-aw3yiT7JjOsmKj2Nv-25" style="edgeStyle=none;rounded=0;orthogonalLoop=1;jettySize=auto;html=1;dashed=1;" edge="1" parent="1" source="Z9-aw3yiT7JjOsmKj2Nv-20" target="Z9-aw3yiT7JjOsmKj2Nv-22">
          <mxGeometry relative="1" as="geometry" />
        </mxCell>
        <mxCell id="Z9-aw3yiT7JjOsmKj2Nv-20" value="" style="rounded=1;arcSize=10;dashed=0;fillColor=none;gradientColor=none;strokeWidth=2;" vertex="1" parent="1">
          <mxGeometry x="310" y="700" width="240" height="420" as="geometry" />
        </mxCell>
        <mxCell id="Z9-aw3yiT7JjOsmKj2Nv-4" style="edgeStyle=orthogonalEdgeStyle;rounded=0;orthogonalLoop=1;jettySize=auto;html=1;entryX=0;entryY=0.5;entryDx=0;entryDy=0;" edge="1" parent="1" source="Z9-aw3yiT7JjOsmKj2Nv-1" target="Z9-aw3yiT7JjOsmKj2Nv-2">
          <mxGeometry relative="1" as="geometry" />
        </mxCell>
        <mxCell id="Z9-aw3yiT7JjOsmKj2Nv-1" value="producer" style="ellipse;whiteSpace=wrap;html=1;aspect=fixed;" vertex="1" parent="1">
          <mxGeometry x="80" y="140" width="80" height="80" as="geometry" />
        </mxCell>
        <mxCell id="Z9-aw3yiT7JjOsmKj2Nv-5" style="edgeStyle=orthogonalEdgeStyle;rounded=0;orthogonalLoop=1;jettySize=auto;html=1;entryX=0.5;entryY=0;entryDx=0;entryDy=0;dashed=1;" edge="1" parent="1" source="Z9-aw3yiT7JjOsmKj2Nv-2" target="Z9-aw3yiT7JjOsmKj2Nv-3">
          <mxGeometry relative="1" as="geometry" />
        </mxCell>
        <mxCell id="Z9-aw3yiT7JjOsmKj2Nv-7" style="edgeStyle=orthogonalEdgeStyle;rounded=0;orthogonalLoop=1;jettySize=auto;html=1;entryX=0;entryY=0.5;entryDx=0;entryDy=0;" edge="1" parent="1" source="Z9-aw3yiT7JjOsmKj2Nv-2" target="Z9-aw3yiT7JjOsmKj2Nv-6">
          <mxGeometry relative="1" as="geometry" />
        </mxCell>
        <mxCell id="Z9-aw3yiT7JjOsmKj2Nv-2" value="nsqd&lt;br&gt;(Topic: a)&lt;br&gt;(Channel: x)" style="rounded=0;whiteSpace=wrap;html=1;" vertex="1" parent="1">
          <mxGeometry x="320" y="150" width="120" height="60" as="geometry" />
        </mxCell>
        <mxCell id="Z9-aw3yiT7JjOsmKj2Nv-8" style="rounded=0;orthogonalLoop=1;jettySize=auto;html=1;entryX=0.5;entryY=1;entryDx=0;entryDy=0;dashed=1;" edge="1" parent="1" source="Z9-aw3yiT7JjOsmKj2Nv-3" target="Z9-aw3yiT7JjOsmKj2Nv-6">
          <mxGeometry relative="1" as="geometry" />
        </mxCell>
        <mxCell id="Z9-aw3yiT7JjOsmKj2Nv-3" value="nsqlookupd&lt;br&gt;cluster" style="ellipse;whiteSpace=wrap;html=1;aspect=fixed;" vertex="1" parent="1">
          <mxGeometry x="340" y="330" width="80" height="80" as="geometry" />
        </mxCell>
        <mxCell id="Z9-aw3yiT7JjOsmKj2Nv-6" value="consumer" style="ellipse;whiteSpace=wrap;html=1;aspect=fixed;" vertex="1" parent="1">
          <mxGeometry x="600" y="140" width="80" height="80" as="geometry" />
        </mxCell>
        <mxCell id="Z9-aw3yiT7JjOsmKj2Nv-11" style="edgeStyle=none;rounded=0;orthogonalLoop=1;jettySize=auto;html=1;entryX=0;entryY=0.5;entryDx=0;entryDy=0;" edge="1" parent="1" source="Z9-aw3yiT7JjOsmKj2Nv-9" target="Z9-aw3yiT7JjOsmKj2Nv-10">
          <mxGeometry relative="1" as="geometry" />
        </mxCell>
        <mxCell id="Z9-aw3yiT7JjOsmKj2Nv-9" value="producer" style="ellipse;whiteSpace=wrap;html=1;aspect=fixed;" vertex="1" parent="1">
          <mxGeometry x="100" y="720" width="80" height="80" as="geometry" />
        </mxCell>
        <mxCell id="Z9-aw3yiT7JjOsmKj2Nv-13" style="edgeStyle=none;rounded=0;orthogonalLoop=1;jettySize=auto;html=1;" edge="1" parent="1" source="Z9-aw3yiT7JjOsmKj2Nv-10" target="Z9-aw3yiT7JjOsmKj2Nv-12">
          <mxGeometry relative="1" as="geometry" />
        </mxCell>
        <mxCell id="Z9-aw3yiT7JjOsmKj2Nv-10" value="nsqd&lt;br&gt;(Topic: a, partition 0, primary)&lt;br&gt;(Topic: b, partition 2, primary)" style="rounded=0;whiteSpace=wrap;html=1;" vertex="1" parent="1">
          <mxGeometry x="340" y="730" width="180" height="60" as="geometry" />
        </mxCell>
        <mxCell id="Z9-aw3yiT7JjOsmKj2Nv-12" value="consumer" style="ellipse;whiteSpace=wrap;html=1;aspect=fixed;" vertex="1" parent="1">
          <mxGeometry x="680" y="720" width="80" height="80" as="geometry" />
        </mxCell>
        <mxCell id="Z9-aw3yiT7JjOsmKj2Nv-14" value="nsqd&lt;br&gt;(Topic: a, partition 1, primary)&lt;br&gt;(Topic: b, partition 1, replica)" style="rounded=0;whiteSpace=wrap;html=1;" vertex="1" parent="1">
          <mxGeometry x="340" y="830" width="180" height="60" as="geometry" />
        </mxCell>
        <mxCell id="Z9-aw3yiT7JjOsmKj2Nv-15" value="nsqd&lt;br&gt;(Topic: a, partition 1, replica)&lt;br&gt;(Topic: b, partition 1, primary)" style="rounded=0;whiteSpace=wrap;html=1;" vertex="1" parent="1">
          <mxGeometry x="340" y="1030" width="180" height="60" as="geometry" />
        </mxCell>
        <mxCell id="Z9-aw3yiT7JjOsmKj2Nv-16" value="nsqd&lt;br&gt;(Topic: a, partition 0, replica)&lt;br&gt;(Topic: b, partition 2, replica)" style="rounded=0;whiteSpace=wrap;html=1;" vertex="1" parent="1">
          <mxGeometry x="340" y="930" width="180" height="60" as="geometry" />
        </mxCell>
        <mxCell id="Z9-aw3yiT7JjOsmKj2Nv-21" value="nsqd&lt;br&gt;cluster" style="dashed=0;html=1;shape=mxgraph.aws3.instance;fillColor=#F58536;gradientColor=none;dashed=0;" vertex="1" parent="1">
          <mxGeometry x="330" y="670" width="50" height="41" as="geometry" />
        </mxCell>
        <mxCell id="Z9-aw3yiT7JjOsmKj2Nv-23" style="edgeStyle=none;rounded=0;orthogonalLoop=1;jettySize=auto;html=1;entryX=1;entryY=0;entryDx=0;entryDy=0;dashed=1;" edge="1" parent="1" source="Z9-aw3yiT7JjOsmKj2Nv-22" target="Z9-aw3yiT7JjOsmKj2Nv-9">
          <mxGeometry relative="1" as="geometry" />
        </mxCell>
        <mxCell id="Z9-aw3yiT7JjOsmKj2Nv-24" style="edgeStyle=none;rounded=0;orthogonalLoop=1;jettySize=auto;html=1;dashed=1;" edge="1" parent="1" source="Z9-aw3yiT7JjOsmKj2Nv-22" target="Z9-aw3yiT7JjOsmKj2Nv-12">
          <mxGeometry relative="1" as="geometry" />
        </mxCell>
        <mxCell id="Z9-aw3yiT7JjOsmKj2Nv-22" value="nsqlookup&lt;br&gt;cluster" style="ellipse;whiteSpace=wrap;html=1;aspect=fixed;" vertex="1" parent="1">
          <mxGeometry x="390" y="530" width="80" height="80" as="geometry" />
        </mxCell>
      </root>
    </mxGraphModel>
  </diagram>
</mxfile>
